<?xml version="1.0" encoding="utf-8"?>
<svg viewBox="0 0 172 172" xmlns="http://www.w3.org/2000/svg">
  <ellipse style="fill: rgba(216, 216, 216, 0); stroke: rgb(0, 0, 0); stroke-width: 12px;" cx="86" cy="86" rx="80" ry="80"/>
  <ellipse style="stroke-width: 24px; fill: rgba(216, 216, 216, 0);" cx="86" cy="86" rx="54" ry="54"/>
  <path d="M 152 86 C 152 103.363 143.953 121.385 132.669 132.669 C 121.385 143.953 103.363 152 86 152 C 68.637 152 50.615 143.953 39.331 132.669 C 28.047 121.385 20 103.363 20 86 C 20 68.637 28.047 50.615 39.331 39.331 C 45.346 33.316 53.276 28.221 62 24.774 L 62 51.378 C 60.044 52.808 58.155 54.449 56.302 56.302 C 48.042 64.561 44 73.54 44 86 C 44 98.46 48.042 107.439 56.302 115.698 C 64.561 123.958 73.54 128 86 128 C 98.46 128 107.439 123.958 115.698 115.698 C 123.958 107.439 128 98.46 128 86 C 128 73.54 123.958 64.561 115.698 56.302 C 107.439 48.042 98.46 44 86 44 C 81.608 44 77.648 44.502 74 45.514 L 74 21.22 C 77.975 20.426 82.005 20 86 20 C 103.363 20 121.385 28.047 132.669 39.331 C 143.953 50.615 152 68.637 152 86 Z" style=""/>
  <rect style="stroke: rgba(0, 0, 0, 0);" x="74" y="26.597" width="24" height="57.558"/>
</svg>